<svg width="52" height="27" viewBox="0 0 52 27" fill="none" xmlns="http://www.w3.org/2000/svg">
<path d="M36.748 1.16H36.46C35.572 1.16 34.792 1.484 34.12 2.132C33.736 2.468 33.46 2.888 33.292 3.392L27.316 22.436C26.836 23.948 26.572 25.28 26.524 26.432H26.2L18.856 5.84L13.384 22.436C12.928 23.924 12.676 25.256 12.628 26.432H12.304L4.132 3.356C3.844 2.636 3.4 2.096 2.8 1.736C2.2 1.352 1.588 1.16 0.964 1.16H0.676V0.799998H8.668V1.16H8.344C7.84 1.16 7.456 1.328 7.192 1.664C6.952 1.976 6.832 2.276 6.832 2.564C6.832 2.852 6.868 3.116 6.94 3.356L12.412 20.888L19.108 0.223999L19.432 0.259999L26.524 20.168L31.348 3.32C31.42 3.056 31.456 2.792 31.456 2.528C31.456 2.24 31.336 1.94 31.096 1.628C30.856 1.316 30.484 1.16 29.98 1.16H29.656V0.799998H36.748V1.16ZM38.4552 24.812C38.3832 24.524 38.3472 23.936 38.3472 23.048C38.3472 22.16 38.5032 21.26 38.8152 20.348H39.2472C39.2232 20.564 39.2112 20.78 39.2112 20.996C39.2112 22.292 39.6312 23.36 40.4712 24.2C41.3352 25.016 42.5232 25.424 44.0352 25.424C45.6192 25.424 46.8552 25.064 47.7432 24.344C48.6312 23.6 49.0752 22.652 49.0752 21.5C49.0752 20.324 48.6432 19.352 47.7792 18.584L40.5792 13.04C39.4272 12.056 38.8512 10.736 38.8512 9.08C38.8512 8.144 39.1032 7.28 39.6072 6.488C40.1352 5.696 40.8552 5.072 41.7672 4.616C42.7032 4.136 43.7952 3.896 45.0432 3.896C46.2912 3.896 47.3952 4.004 48.3552 4.22H49.5432L49.6152 8.144H49.2192C49.2192 7.136 48.8712 6.356 48.1752 5.804C47.4792 5.252 46.4832 4.976 45.1872 4.976C43.8912 4.976 42.8232 5.312 41.9832 5.984C41.1432 6.632 40.7232 7.484 40.7232 8.54C40.7232 9.572 41.1912 10.472 42.1272 11.24L49.3992 16.856C50.5032 17.768 51.0552 19.04 51.0552 20.672C51.0552 22.304 50.4312 23.684 49.1832 24.812C47.9592 25.94 46.4592 26.504 44.6832 26.504C43.5072 26.504 42.3312 26.36 41.1552 26.072C39.9792 25.784 39.0792 25.364 38.4552 24.812Z" fill="#ECE9E4"/>
</svg>
